<?xml version="1.0" standalone="no"?>
<!DOCTYPE svg PUBLIC "-//W3C//DTD SVG 20010904//EN"
 "http://www.w3.org/TR/2001/REC-SVG-20010904/DTD/svg10.dtd">
<svg version="1.0" xmlns="http://www.w3.org/2000/svg"
 width="200.000000pt" height="200.000000pt" viewBox="0 0 200.000000 200.000000"
 preserveAspectRatio="xMidYMid meet">
<metadata>
Created by potrace 1.11, written by Peter Selinger 2001-2013
</metadata>
<g transform="translate(0.000000,200.000000) scale(0.100000,-0.100000)"
fill="#000000" stroke="none">
<path d="M0 1000 l0 -1000 1000 0 1000 0 0 1000 0 1000 -1000 0 -1000 0 0
-1000z m1548 398 c69 -26 124 -75 156 -141 36 -72 34 -83 -18 -96 -61 -15 -60
-15 -75 25 -34 94 -119 140 -245 132 -168 -11 -260 -124 -260 -318 0 -146 46
-235 147 -284 101 -49 228 -42 333 20 l44 26 0 74 0 74 -120 0 -120 0 0 50 0
50 175 0 175 0 0 -154 0 -155 -33 -25 c-55 -42 -159 -85 -234 -96 -291 -45
-512 158 -490 450 16 219 128 353 327 390 64 12 174 2 238 -22z m-638 -38 l0
-50 -135 0 -135 0 0 -360 0 -360 -60 0 -60 0 0 360 0 360 -135 0 -135 0 0 50
0 50 330 0 330 0 0 -50z"/>
</g>
</svg>
